<svg xmlns="http://www.w3.org/2000/svg" viewBox="0 0 439.93 512"><defs><style>.cls-1{fill:#fff;}</style></defs><g id="Layer_2" data-name="Layer 2"><g id="Layer_1-2" data-name="Layer 1"><path class="cls-1" d="M145.78,416.75c-7.42,1-14,1.82-20.6,2.76-7.55,1.08-15.09,2.19-22.62,3.41C85,425.75,61.5,415.27,56,390.74c-1.51-6.72-1.93-13.67-2.92-20.5Q50,349,46.85,327.82c-.28-1.86-.75-3.69-1.2-5.85-1.73-.22-3.32-.53-4.93-.62-3.33-.2-6.68-.16-10-.44-21.26-1.84-37-25.22-28.25-47.21a70.69,70.69,0,0,1,4.2-8.28C18,245.29,29.37,225.15,40.88,205.1a26.12,26.12,0,0,0,3.66-13.45A184.75,184.75,0,0,1,73.35,92.76c30.23-48,73.42-77.91,129.11-89.27A181.8,181.8,0,0,1,258,1.08,203.22,203.22,0,0,1,365.13,44.62c34.74,27.5,58.33,62.5,69.31,105.64a184.36,184.36,0,0,1,4.22,66.68c-3.4,30.09-12.14,58.71-23.9,86.47a357.43,357.43,0,0,1-48.27,82.42c-2.45,3.1-3,6.23-3,9.88q.08,50.06,0,100.11a62.57,62.57,0,0,1-.11,6.43c-.58,5.55-4.18,9.07-9.76,9.65a49.22,49.22,0,0,1-5,.07H160.45a43.83,43.83,0,0,1-5-.09c-5.56-.65-9-4.3-9.37-9.92-.13-1.9-.06-3.81-.06-5.72q0-35.39,0-70.79C146,422.86,145.88,420.27,145.78,416.75Zm197.46,74.68c.1-2.94.25-5.51.25-8.08,0-31.23.08-62.45-.05-93.68a18.34,18.34,0,0,1,4.29-12.41,333.38,333.38,0,0,0,45.12-73.54c12.74-28.15,22.22-57.27,25.85-88.1a164.38,164.38,0,0,0-4.15-61.68A171,171,0,0,0,358,64.78c-43-36.16-92.58-50.93-148.48-42-36.2,5.81-67.39,22-93.2,47.91-34.64,34.74-52.24,76.79-51.76,126A25.37,25.37,0,0,1,61,210.26c-12.36,21.48-24.49,43.1-36.69,64.67-1,1.87-2.11,3.74-3,5.69-4.09,9.07,2.54,19.6,11.62,20.26,2.14.15,4.29.22,6.43.24,4.54,0,9.07-.1,13.6.06,7.26.24,10.43,3,11.59,10.06,1,6.35,2,12.72,2.86,19.09,2.53,17.92,5,35.86,7.56,53.77A22,22,0,0,0,100.13,403c10.62-1.48,21.22-3.17,31.82-4.75,7.31-1.09,14.61-2.31,21.94-3.17,6.9-.81,11.53,3.17,12.08,10,.16,1.9.06,3.81.06,5.72q0,37.18,0,74.37c0,2.06-.63,4.3.91,6.09C172.6,492.09,334.49,492.27,343.24,491.43Z"/><path class="cls-1" d="M241.76,368.34A36.46,36.46,0,0,1,207,346.17a37,37,0,0,1-2.7-13.94c-.05-4.77-.16-9.54,0-14.3a23.58,23.58,0,0,0-2.41-11c-9.47-20.56-18.8-41.18-28.23-61.76a76.85,76.85,0,0,1-7.26-33.25,75.44,75.44,0,0,1,59.3-73c42.4-9.22,82.33,18.41,90.25,59.89a75,75,0,0,1-5.73,46.07q-10.2,22.45-20.47,44.87c-2.77,6.07-5.44,12.18-8.31,18.2a19.15,19.15,0,0,0-2,8.95c.12,5.24-.05,10.48,0,15.73A35.46,35.46,0,0,1,253,366.74C249.38,367.69,245.52,367.83,241.76,368.34Zm-17.06-48a57.24,57.24,0,0,0,0,14.81,15,15,0,0,0,13.64,12.58,40.6,40.6,0,0,0,6.43,0c6.6-.44,11.09-3.91,13.65-9.9,1.61-3.78,1.47-12.72-.18-17.53Z"/><path class="cls-1" d="M137.84,111.48a10.07,10.07,0,0,1,15.73-7.31,14.08,14.08,0,0,1,2.16,1.85c5.35,5.4,10.66,10.84,16,16.22a10.63,10.63,0,0,1,3.4,9,9.71,9.71,0,0,1-14.26,7.72,14.43,14.43,0,0,1-3.37-2.56c-5.37-5.38-10.69-10.81-16-16.23C139.08,117.66,137.59,114.8,137.84,111.48Z"/><path class="cls-1" d="M346,112.38a11.25,11.25,0,0,1-3,7.06c-5.81,6-11.52,12-17.52,17.76-6.6,6.32-15.36,1.66-16.74-5a9.24,9.24,0,0,1,2.32-8.59c6.06-6.37,12.19-12.68,18.52-18.77,3.26-3.13,7.36-3.21,11.29-1.2C344.29,105.39,345.76,108.57,346,112.38Z"/><path class="cls-1" d="M232,84.43c0-4.28-.26-8.58.06-12.84a9.7,9.7,0,0,1,12.77-8.7c3.8,1.12,5.93,3.86,6.8,7.56a22.84,22.84,0,0,1,.31,5c0,6.42,0,12.85,0,19.27a28.12,28.12,0,0,1-.1,3.56,10.06,10.06,0,0,1-10.09,9.16A9.64,9.64,0,0,1,232.08,98C231.82,93.48,232,89,232,84.43Z"/><path class="cls-1" d="M124.22,197.33c4,0,8.08-.16,12.1,0,5.77.27,9.53,3.9,9.87,9.2s-3.13,9.51-8.56,10.56a19.09,19.09,0,0,1-3.55.23c-6.88,0-13.76.1-20.64,0a17.69,17.69,0,0,1-6.21-1.17c-4.21-1.71-6.26-5.77-5.69-10.4a9.24,9.24,0,0,1,8.45-8.26c4.73-.32,9.49-.07,14.23-.07Z"/><path class="cls-1" d="M360.66,197.38c4.27,0,8.56-.25,12.81.06a9.55,9.55,0,0,1,8.91,10.77,9.07,9.07,0,0,1-6.07,8.06,16.53,16.53,0,0,1-5.52,1q-10.68.18-21.36,0a16.54,16.54,0,0,1-5.54-1c-4.55-1.72-6.81-5.94-6.11-10.81a9.63,9.63,0,0,1,8.64-8.13,11.27,11.27,0,0,1,1.42-.08h12.82Z"/></g></g></svg>